<svg fill="none" height="24" viewBox="0 0 24 24" width="24" xmlns="http://www.w3.org/2000/svg"><g fill="#292d32"><path d="m12 22c5.5228 0 10-4.4772 10-10 0-5.52285-4.4772-10-10-10-5.52285 0-10 4.47715-10 10 0 5.5228 4.47715 10 10 10z" opacity=".4"/><path d="m7.99945 14.75c-.19 0-.38-.07-.53-.22l-2-2c-.29-.29-.29-.7701 0-1.0601l2-1.99996c.29-.29.77-.29 1.06 0s.29.77006 0 1.06006l-1.47 1.47 1.47 1.4699c.29.29.29.7701 0 1.0601-.15.15-.34.22-.53.22z"/><path d="m15.9995 14.75c-.19 0-.38-.07-.53-.22-.29-.29-.29-.7701 0-1.0601l1.47-1.4699-1.47-1.47c-.29-.29-.29-.77006 0-1.06006s.77-.29 1.06 0l2 1.99996c.29.29.29.7701 0 1.0601l-2 2c-.15.15-.34.22-.53.22z"/><path d="m11.0001 15.0801c-.1 0-.2-.02-.29-.06-.38-.16-.56-.6-.39-.99l2-4.67006c.16-.38.6-.56002.98-.39002.38.16.56.60006.39.99006l-2 4.67002c-.12.28-.4.45-.69.45z"/></g></svg>