<svg fill="none" height="24" viewBox="0 0 24 24" width="24" xmlns="http://www.w3.org/2000/svg"><g fill="#292d32"><path d="m19.5 8c1.3807 0 2.5-1.11929 2.5-2.5s-1.1193-2.5-2.5-2.5-2.5 1.11929-2.5 2.5 1.1193 2.5 2.5 2.5z"/><path d="m19.5 8c1.3807 0 2.5-1.11929 2.5-2.5s-1.1193-2.5-2.5-2.5-2.5 1.11929-2.5 2.5 1.1193 2.5 2.5 2.5z"/><path d="m20.72 9.30977c.63-.2 1.28.29001 1.28.96003v5.24c0 3.5-2 5-5 5h-10c-3 0-5-1.5-5-5v-7.00003c0-3.5 2-5 5-5h7.61c.65 0 1.09.60001.97 1.23001-.12.59-.1 1.21999.08 1.86999.37 1.34 1.46 2.41 2.8 2.76.79.2 1.56.16 2.26-.06z" opacity=".4"/><path d="m12.0008 12.8698c-.84 0-1.69-.26-2.34004-.79l-3.13001-2.50002c-.32-.26-.37999-.73-.11999-1.05s.72999-.38 1.04999-.12l3.13005 2.50002c.76.61 2.0499.61 2.8099 0l1.18-.94002c.32-.26.8001-.21001 1.0501.12002.26.32.21.8-.12 1.05l-1.1801.94c-.64.53-1.4899.79-2.3299.79z"/></g></svg>