<svg fill="none" height="24" viewBox="0 0 24 24" width="24" xmlns="http://www.w3.org/2000/svg"><g fill="#292d32"><path d="m2.70911 17.0202 1.74-3.48c.48-.97.48-2.1 0-3.07l-1.74-3.48998c-1.49-2.98 1.72-6.130002 4.67-4.57l1.54.82c.22.11.39.29.48.51l5.68999 12.64998c.23.52.02 1.13-.48 1.39l-7.23999 3.81c-2.94 1.56-6.15-1.59-4.66-4.57z"/><path d="m16.3093 15.6-3.73-8.28004c-.42-.93.58-1.87 1.48-1.39l5.77 3.04c2.45 1.29004 2.45 4.79004 0 6.08004l-2.04 1.07c-.55.28-1.22.05-1.48-.52z" opacity=".4"/></g></svg>