<svg width="24" height="24" viewBox="0 0 24 24" fill="none" xmlns="http://www.w3.org/2000/svg">
<path opacity="0.4" d="M11.5 21C12.7476 21 13.9829 20.7543 15.1355 20.2769C16.2881 19.7994 17.3354 19.0997 18.2175 18.2175C19.0997 17.3354 19.7994 16.2881 20.2769 15.1355C20.7543 13.9829 21 12.7476 21 11.5C21 10.2524 20.7543 9.0171 20.2769 7.86451C19.7994 6.71191 19.0997 5.66464 18.2175 4.78249C17.3354 3.90033 16.2881 3.20056 15.1355 2.72314C13.9829 2.24572 12.7476 2 11.5 2C8.98044 2 6.56408 3.00089 4.78249 4.78249C3.00089 6.56408 2 8.98044 2 11.5C2 14.0196 3.00089 16.4359 4.78249 18.2175C6.56408 19.9991 8.98044 21 11.5 21V21Z" fill="#61656A"/>
<path d="M21.3 22.0001C21.12 22.0001 20.94 21.9301 20.81 21.8001L18.95 19.9401C18.8202 19.808 18.7474 19.6302 18.7474 19.4451C18.7474 19.2599 18.8202 19.0821 18.95 18.9501C19.22 18.6801 19.66 18.6801 19.94 18.9501L21.8 20.8101C22.07 21.0801 22.07 21.5201 21.8 21.8001C21.66 21.9301 21.48 22.0001 21.3 22.0001Z" fill="#61656A"/>
</svg>
