<svg width="24" height="24" viewBox="0 0 24 24" fill="none" xmlns="http://www.w3.org/2000/svg">
<path opacity="0.4" d="M12 20.27C15.53 20.27 18.82 18.19 21.11 14.59C22.01 13.18 22.01 10.81 21.11 9.39997C18.82 5.79997 15.53 3.71997 12 3.71997C8.47003 3.71997 5.18003 5.79997 2.89003 9.39997C1.99003 10.81 1.99003 13.18 2.89003 14.59C5.18003 18.19 8.47003 20.27 12 20.27Z" fill="#878C90"/>
<path d="M15.5801 12.0002C15.5801 13.9802 13.9801 15.5802 12.0001 15.5802C10.0201 15.5802 8.4201 13.9802 8.4201 12.0002C8.4201 10.0202 10.0201 8.42017 12.0001 8.42017C13.9801 8.42017 15.5801 10.0202 15.5801 12.0002Z" fill="#878C90"/>
</svg>
