<svg width="29" height="28" viewBox="0 0 29 28" fill="none" xmlns="http://www.w3.org/2000/svg">
<path opacity="0.4" d="M23.88 7.95667L17.16 3.255C15.3283 1.97167 12.5167 2.04167 10.755 3.40667L4.91 7.96833C3.74334 8.87833 2.82167 10.745 2.82167 12.215V20.265C2.82167 23.24 5.23667 25.6667 8.21167 25.6667H20.7883C23.7633 25.6667 26.1783 23.2517 26.1783 20.2767V12.3667C26.1783 10.7917 25.1633 8.855 23.88 7.95667Z" fill="#878C90"/>
<path d="M14.5 21.875C14.0217 21.875 13.625 21.4783 13.625 21V17.5C13.625 17.0217 14.0217 16.625 14.5 16.625C14.9783 16.625 15.375 17.0217 15.375 17.5V21C15.375 21.4783 14.9783 21.875 14.5 21.875Z" fill="#878C90"/>
</svg>
