<svg fill="none" height="24" viewBox="0 0 24 24" width="24" xmlns="http://www.w3.org/2000/svg"><g fill="#292d32"><path d="m7.24 2h-1.9c-2.19 0-3.34 1.15-3.34 3.33v1.9c0 2.18 1.15 3.33 3.33 3.33h1.9c2.18 0 3.33-1.15 3.33-3.33v-1.9c.01-2.18-1.14-3.33-3.32-3.33z"/><path d="m18.6695 2h-1.9c-2.18 0-3.33 1.15-3.33 3.33v1.9c0 2.18 1.15 3.33 3.33 3.33h1.9c2.18 0 3.33-1.15 3.33-3.33v-1.9c0-2.18-1.15-3.33-3.33-3.33z" opacity=".4"/><path d="m18.6695 13.4302h-1.9c-2.18 0-3.33 1.15-3.33 3.33v1.9c0 2.18 1.15 3.33 3.33 3.33h1.9c2.18 0 3.33-1.15 3.33-3.33v-1.9c0-2.18-1.15-3.33-3.33-3.33z"/><path d="m7.24 13.4302h-1.9c-2.19 0-3.34 1.15-3.34 3.33v1.9c0 2.19 1.15 3.34 3.33 3.34h1.9c2.18 0 3.33-1.15 3.33-3.33v-1.9c.01-2.19-1.14-3.34-3.32-3.34z" opacity=".4"/></g></svg>