<svg fill="none" height="24" viewBox="0 0 24 24" width="24" xmlns="http://www.w3.org/2000/svg"><g fill="#292d32"><path d="m21.8098 3.94009c-1.31 3.27-4.3 7.54001-7.15 10.33001-.41-2.58-2.47-4.60001-5.06996-4.96001 2.79996-2.86 7.09996-5.89 10.37996-7.21.58-.22 1.16-.05 1.52.31.38.38.56.95.32 1.53z"/><path d="m14.6595 14.2701c-.5.49-1 .94-1.48 1.32l-1.97 1.58c-.25.18-.5.33-.78.45 0-.19-.02-.38-.04-.58-.11-.83-.48997-1.62-1.15997-2.29-.69-.68-1.51-1.07-2.36-1.18-.2-.02-.41-.03-.6-.02.11-.31.28-.6.49-.84l1.56-1.97c.37-.47.8-.95004 1.27-1.43004 2.59997.36 4.65997 2.38004 5.06997 4.96004z" opacity=".4"/><path d="m10.4298 17.6198c0 1.1-.42 2.15-1.22004 2.94-.61.62-1.42999 1.04-2.42999 1.16l-2.45001.27c-1.34.15-2.49-1-2.34-2.35l.27-2.46c.24-2.19 2.07-3.59 4.01-3.63.19-.01.4 0 .6.02.85.11 1.67.5 2.36 1.18.67.67 1.05004 1.46 1.16004 2.29.02.2.04.39.04.58z"/></g></svg>