<?xml version="1.0" encoding="UTF-8"?>
<!-- Generated by Pixelmator Pro 3.3.4 -->
<svg width="32" height="34" viewBox="0 0 32 34" xmlns="http://www.w3.org/2000/svg">
    <g id="Group">
        <path id="Path" fill="#292d32" stroke="none" opacity="0.4" d="M 25.129108 27.590611 C 25.129108 27.900702 24.885509 28.1443 24.575508 28.1443 L 5.55361 28.1443 C 5.243589 28.1443 5 27.900702 5 27.590611 C 5 23.006804 9.517423 19.28651 15.064598 19.28651 C 16.205002 19.28651 17.312292 19.441599 18.330896 19.740505 C 17.677601 20.515598 17.279001 21.523106 17.279001 22.608204 C 17.279001 23.438604 17.511415 24.224709 17.921112 24.889011 C 18.142517 25.265505 18.430414 25.608709 18.762609 25.896606 C 19.537615 26.605209 20.567493 27.03701 21.707897 27.03701 C 22.947994 27.03701 24.066294 26.527708 24.863493 25.708405 C 25.0406 26.306303 25.129108 26.937405 25.129108 27.590611 Z"/>
        <path id="Path-copy" fill="#292d32" stroke="none" d="M 21.733067 18.329641 C 19.300169 18.329641 17.329641 20.300255 17.329641 22.733133 C 17.329641 23.558735 17.560822 24.340313 17.968138 25.000908 C 18.72773 26.277889 20.125816 27.136528 21.733067 27.136528 C 23.340313 27.136528 24.738401 26.277889 25.49799 25.000908 C 25.90531 24.340313 26.13649 23.558735 26.13649 22.733133 C 26.13649 20.300255 24.165953 18.329641 21.733067 18.329641 Z M 23.901752 22.369795 L 21.556927 24.538549 C 21.402805 24.681593 21.193645 24.758652 20.995487 24.758652 C 20.786327 24.758652 20.577168 24.681593 20.412037 24.516491 L 19.322187 23.426674 C 19.002939 23.107357 19.002939 22.579014 19.322187 22.259697 C 19.641439 21.940475 20.169847 21.940475 20.489096 22.259697 L 21.017508 22.788136 L 22.778873 21.158895 C 23.109135 20.850655 23.637543 20.87262 23.945782 21.202915 C 24.254023 21.533215 24.232002 22.061556 23.901752 22.369795 Z"/>
        <path id="path1" fill="#292d32" stroke="none" d="M 15.064423 17.072105 C 18.12182 17.072105 20.600431 14.593548 20.600431 11.53607 C 20.600431 8.478582 18.12182 6 15.064423 6 C 12.006935 6 9.528307 8.478582 9.528307 11.53607 C 9.528307 14.593548 12.006935 17.072105 15.064423 17.072105 Z"/>
    </g>
</svg>
