<svg width="24" height="24" viewBox="0 0 24 24" fill="none" xmlns="http://www.w3.org/2000/svg">
<path opacity="0.4" d="M12 2C9.38 2 7.25 4.13 7.25 6.75C7.25 9.32 9.26 11.4 11.88 11.49C11.96 11.48 12.04 11.48 12.1 11.49H12.17C13.3994 11.449 14.5646 10.9315 15.4193 10.0469C16.274 9.16234 16.7512 7.98004 16.75 6.75C16.75 4.13 14.62 2 12 2Z" fill="#61656A"/>
<path d="M17.08 14.1499C14.29 12.2899 9.74 12.2899 6.93 14.1499C5.66 14.9999 4.96 16.1499 4.96 17.3799C4.96 18.6099 5.66 19.7499 6.92 20.5899C8.32 21.5299 10.16 21.9999 12 21.9999C13.84 21.9999 15.68 21.5299 17.08 20.5899C18.34 19.7399 19.04 18.5999 19.04 17.3599C19.03 16.1299 18.34 14.9899 17.08 14.1499Z" fill="#61656A"/>
</svg>
