<svg fill="none" height="24" viewBox="0 0 24 24" width="24" xmlns="http://www.w3.org/2000/svg"><g fill="#292d32"><path d="m21.2897 17.0198-1.74-3.48c-.48-.97-.48-2.1 0-3.07l1.74-3.47997c1.49-2.99-1.72-6.130001-4.67-4.57l-1.54.82c-.21.11-.38.29-.48.51l-5.70001 12.63997c-.23.52-.02 1.13.48 1.39l7.24001 3.81c2.95 1.56 6.16-1.59 4.67-4.57z"/><path d="m7.68953 15.6 3.72997-8.28004c.42-.93-.58-1.87-1.47997-1.39l-5.77 3.03c-2.45 1.29004-2.45 4.79004 0 6.08004l2.04 1.07c.55.29 1.22.06 1.48-.51z" opacity=".4"/></g></svg>