<svg width="24" height="24" viewBox="0 0 24 24" fill="none" xmlns="http://www.w3.org/2000/svg">
<path d="M20.1 7.80723V10.2361C19.572 10.1667 18.972 10.132 18.3 10.1205V7.80723C18.3 4.16385 17.232 1.73494 12 1.73494C6.768 1.73494 5.7 4.16385 5.7 7.80723V10.1205C5.028 10.132 4.428 10.1667 3.9 10.2361V7.80723C3.9 4.45301 4.74 0 12 0C19.26 0 20.1 4.45301 20.1 7.80723Z" fill="#292D32"/>
<path opacity="0.4" d="M24 15.9036V18.2169C24 22.8434 22.8 24 18 24H6C1.2 24 0 22.8434 0 18.2169V15.9036C0 12.0405 0.84 10.5947 3.9 10.2361C4.428 10.1667 5.028 10.132 5.7 10.1205H18.3C18.972 10.132 19.572 10.1667 20.1 10.2361C23.16 10.5947 24 12.0405 24 15.9036Z" fill="#292D32"/>
<path d="M7.2 18.217C7.044 18.217 6.888 18.1823 6.744 18.1245C6.588 18.0666 6.46801 17.9857 6.34801 17.8816C6.13201 17.6618 6 17.3611 6 17.0604C6 16.91 6.03599 16.7596 6.09599 16.6208C6.15599 16.482 6.24001 16.3548 6.34801 16.2392C6.46801 16.1351 6.588 16.0541 6.744 15.9963C7.188 15.8112 7.71599 15.9153 8.05199 16.2392C8.15999 16.3548 8.24401 16.482 8.30401 16.6208C8.36401 16.7596 8.4 16.91 8.4 17.0604C8.4 17.3611 8.26799 17.6618 8.05199 17.8816C7.82399 18.0898 7.512 18.217 7.2 18.217Z" fill="#292D32"/>
<path d="M12 18.2169C11.676 18.2169 11.376 18.0896 11.148 17.8814C11.04 17.7658 10.956 17.6386 10.896 17.4998C10.836 17.361 10.8 17.2106 10.8 17.0602C10.8 16.748 10.932 16.4588 11.148 16.239C11.592 15.8111 12.396 15.8111 12.852 16.239C13.068 16.4588 13.2 16.748 13.2 17.0602C13.2 17.2106 13.164 17.361 13.104 17.4998C13.044 17.6386 12.96 17.7658 12.852 17.8814C12.624 18.0896 12.312 18.2169 12 18.2169Z" fill="#292D32"/>
<path d="M16.8 18.2169C16.488 18.2169 16.176 18.0896 15.948 17.8814C15.732 17.6617 15.6 17.3725 15.6 17.0602C15.6 16.748 15.732 16.4588 15.948 16.239C16.404 15.8111 17.208 15.8111 17.652 16.239C17.7 16.2969 17.748 16.3547 17.796 16.4241C17.844 16.4819 17.88 16.5513 17.904 16.6207C17.94 16.6901 17.964 16.7595 17.976 16.8289C17.988 16.9099 18 16.9908 18 17.0602C18 17.361 17.868 17.6617 17.652 17.8814C17.424 18.0896 17.112 18.2169 16.8 18.2169Z" fill="#292D32"/>
</svg>
