<svg width="24" height="25" viewBox="0 0 24 25" fill="none" xmlns="http://www.w3.org/2000/svg">
<path opacity="0.4" d="M21.3457 3.1556C17.7946 -0.385199 12.036 -0.385199 8.50895 3.1556C6.02558 5.61615 5.28177 9.15695 6.24153 12.2777L0.602953 17.919C0.207053 18.327 -0.0688773 19.1312 0.0151014 19.7074L0.375011 22.3239C0.506977 23.1881 1.31077 24.0043 2.17456 24.1244L4.78989 24.4844C5.36575 24.5685 6.16954 24.3044 6.57744 23.8843L7.56119 22.9001C7.80113 22.672 7.80113 22.2879 7.56119 22.0479L5.23378 19.7194C4.88587 19.3713 4.88587 18.7952 5.23378 18.4471C5.58169 18.099 6.15755 18.099 6.50546 18.4471L8.84487 20.7876C9.07281 21.0157 9.45671 21.0157 9.68462 20.7876L12.228 18.255C15.3352 19.2272 18.8743 18.4711 21.3457 16.0105C24.8848 12.4697 24.8848 6.69639 21.3457 3.1556ZM14.9993 12.4937C13.3437 12.4937 12 11.1494 12 9.49302C12 7.83665 13.3437 6.49235 14.9993 6.49235C16.6549 6.49235 17.9985 7.83665 17.9985 9.49302C17.9985 11.1494 16.6549 12.4937 14.9993 12.4937Z" fill="#292D32"/>
<path d="M14.9986 12.4936C16.655 12.4936 17.9978 11.1502 17.9978 9.49294C17.9978 7.83572 16.655 6.49227 14.9986 6.49227C13.3421 6.49227 11.9993 7.83572 11.9993 9.49294C11.9993 11.1502 13.3421 12.4936 14.9986 12.4936Z" fill="#292D32"/>
</svg>
