<svg fill="none" height="24" viewBox="0 0 24 24" width="24" xmlns="http://www.w3.org/2000/svg"><g fill="#292d32"><path d="m12 12c2.7614 0 5-2.23858 5-5s-2.2386-5-5-5c-2.76142 0-5 2.23858-5 5s2.23858 5 5 5z"/><path d="m12.0002 14.5c-5.01002 0-9.09004 3.36-9.09004 7.5 0 .28.22.5.5.5h17.18004c.28 0 .5-.22.5-.5 0-4.14-4.08-7.5-9.09-7.5z" opacity=".4"/><path d="m21.4291 14.7401c-.9-.9-1.61-.61-2.22 0l-3.5401 3.54c-.14.14-.2699.4-.2999.59l-.19 1.35c-.07.49.27.83.76.76l1.3499-.19c.19-.03.4601-.16.5901-.3l3.5399-3.54c.62-.6.9101-1.31.0101-2.21z"/></g></svg>