<svg fill="none" height="24" viewBox="0 0 24 24" width="24" xmlns="http://www.w3.org/2000/svg"><g fill="#292d32"><path d="m12 12c2.7614 0 5-2.23858 5-5s-2.2386-5-5-5c-2.76142 0-5 2.23858-5 5s2.23858 5 5 5z"/><path d="m12.0002 14.5c-5.01002 0-9.09004 3.36-9.09004 7.5 0 .28.22.5.5.5h17.18004c.28 0 .5-.22.5-.5 0-4.14-4.08-7.5-9.09-7.5z" opacity=".4"/><path d="m22.77 20.68-.76-.76c.4-.6.63-1.32.63-2.09 0-2.11-1.71-3.82-3.82-3.82s-3.82 1.71-3.82 3.82 1.71 3.82 3.82 3.82c.77 0 1.49-.23 2.09-.63l.76.76c.15.15.35.23.55.23s.4-.08.55-.23c.31-.31.31-.8 0-1.1z"/></g></svg>