<svg fill="none" height="24" viewBox="0 0 24 24" width="24" xmlns="http://www.w3.org/2000/svg"><g fill="#292d32"><path d="m19.0693 14.2401c-.29.29-.75.29-1.03 0-.29-.29-.29-.75 0-1.03 2-2 2-5.25 0-7.24s-5.25-2-7.24 0-2 5.25 0 7.24c.29.29.29.75 0 1.03-.29.29-.75.29-1.03 0-2.57-2.57-2.57-6.75 0-9.31s6.75-2.57 9.31 0 2.56 6.74-.01 9.31z"/><path d="m19.0695 4.92994c2.57 2.57 2.57 6.73996 0 9.30996-.88.88-1.96 1.46-3.09 1.74.53-2.16-.05-4.53-1.74-6.21996-1.69-1.69-4.06-2.27-6.21997-1.74.28-1.13.85-2.21 1.74-3.09 2.56997-2.57 6.73997-2.57 9.30997 0z" opacity=".4"/><path d="m4.9307 9.75998c.29-.29.75001-.29 1.03001 0 .29.29002.29.75002 0 1.03002-2 2-2 5.25 0 7.24 1.99999 1.99 5.24999 2 7.23999 0s2-5.25 0-7.24c-.29-.29-.29-.75 0-1.03002.29-.29.75-.29 1.03 0 2.57 2.57002 2.57 6.75002 0 9.31002s-6.74999 2.57-9.30999 0-2.56001-6.74.00999-9.31002z"/><path d="m14.2395 9.75988c1.69 1.69002 2.27 4.06002 1.74 6.22002-.28 1.13-.86 2.21-1.74 3.09-2.57 2.57-6.74005 2.57-9.31005 0s-2.57-6.74 0-9.31002c.88-.89 1.96-1.46 3.09-1.74 2.16005-.53 4.53005.05 6.22005 1.74z" opacity=".5"/></g></svg>