<svg fill="none" height="24" viewBox="0 0 24 24" width="24" xmlns="http://www.w3.org/2000/svg"><g fill="#292d32"><path d="m12 22c5.5228 0 10-4.4772 10-10 0-5.52285-4.4772-10-10-10-5.52285 0-10 4.47715-10 10 0 5.5228 4.47715 10 10 10z" opacity=".4"/><path d="m7.93974 15.2599c-.09 0-.17001-.01-.26001-.05-.81-.3-1.49-.89-1.92-1.66-1-1.8-.37999-4.14998 1.37001-5.23998l2.34-1.45001c.85996-.53 1.86996-.68997 2.82996-.43997s1.77.87998 2.26 1.75998c1 1.8.38 4.14998-1.37 5.23998l-.26.19c-.34.24-.81.16-1.05-.17-.24-.34-.16-.81.17-1.05l.31-.22c1.12-.7 1.5-2.15.89-3.25997-.29-.52-.76-.89001-1.32-1.04001s-1.15-.05999-1.66.26001l-2.33997 1.44998c-1.08.66999-1.45999 2.11999-.84999 3.23999.25.45.65.8 1.13.98.39.14.58999.57.43999.96-.11.31-.39999.5-.70999.5z"/><path d="m12.66 17.6501c-.3 0-.61-.04-.91-.12-.96-.25-1.77003-.88-2.25003-1.76-1-1.8-.38001-4.15 1.37003-5.24l.26-.19c.34-.24.81-.16 1.05.17.24.34.16.81-.17 1.05l-.31.22c-1.12.7-1.5 2.15-.89 3.26.29.52.76.89 1.32 1.04s1.15.06 1.66-.26l2.34-1.45c1.08-.67 1.46-2.12.85-3.24-.25-.45-.65-.8-1.13-.98-.39-.14-.59-.56999-.44-.95999.14-.39.58-.59.96-.44.81.3 1.49.89001 1.92 1.65999 1 1.8.38 4.15-1.37 5.24l-2.34 1.45c-.59.36-1.25.55-1.92.55z"/></g></svg>