<?xml version="1.0" encoding="UTF-8"?>
<!-- Generated by Pixelmator Pro 3.3.4 -->
<svg width="32" height="34" viewBox="0 0 32 34" xmlns="http://www.w3.org/2000/svg">
    <g id="Group">
        <path id="Path" fill="#292d32" stroke="none" opacity="0.4" d="M 24.999088 27.594189 C 24.999088 27.902275 24.757063 28.1443 24.449064 28.1443 L 5.550034 28.1443 C 5.242016 28.1443 5 27.902275 5 27.594189 C 5 23.039988 9.488243 19.343725 14.999587 19.343725 C 16.132626 19.343725 17.232763 19.497812 18.244787 19.794788 C 17.595713 20.564875 17.199686 21.565876 17.199686 22.643963 C 17.199686 23.469 17.430599 24.250027 17.83765 24.910038 C 18.057625 25.2841 18.343664 25.625088 18.673712 25.911125 C 19.443712 26.61515 20.466938 27.044163 21.599974 27.044163 C 22.832062 27.044163 23.943138 26.538151 24.735188 25.724138 C 24.91115 26.318176 24.999088 26.945198 24.999088 27.594189 Z"/>
        <path id="path1" fill="#292d32" stroke="none" d="M 24.866875 19.706762 C 24.074825 18.804726 22.897774 18.243675 21.599712 18.243675 C 20.367624 18.243675 19.245613 18.749775 18.442537 19.574814 C 17.672539 20.366863 17.199512 21.455887 17.199512 22.643963 C 17.199512 23.469 17.430513 24.250027 17.837475 24.910124 C 18.057537 25.2841 18.343575 25.625088 18.673536 25.911125 C 19.443624 26.61515 20.466675 27.04425 21.599712 27.04425 C 23.205776 27.04425 24.602886 26.186138 25.36195 24.910124 C 25.592949 24.536062 25.768999 24.10705 25.867962 23.667011 C 25.955986 23.336964 26 22.995975 26 22.643963 C 26 21.521862 25.570988 20.487875 24.866875 19.706762 Z M 23.249786 23.447037 L 22.424749 23.447037 L 22.424749 24.305061 C 22.424749 24.756037 22.050776 25.1301 21.599712 25.1301 C 21.148737 25.1301 20.774675 24.756037 20.774675 24.305061 L 20.774675 23.447037 L 19.949638 23.447037 C 19.498575 23.447037 19.124601 23.072975 19.124601 22.622 C 19.124601 22.170937 19.498575 21.796875 19.949638 21.796875 L 20.774675 21.796875 L 20.774675 21.01585 C 20.774675 20.564875 21.148737 20.190811 21.599712 20.190811 C 22.050776 20.190811 22.424749 20.564875 22.424749 21.01585 L 22.424749 21.796875 L 23.249786 21.796875 C 23.70085 21.796875 24.074825 22.170937 24.074825 22.622 C 24.074825 23.072975 23.70085 23.447037 23.249786 23.447037 Z"/>
        <path id="path2" fill="#292d32" stroke="none" d="M 14.999413 17.143625 C 18.037062 17.143625 20.499662 14.681076 20.499662 11.643349 C 20.499662 8.60561 18.037062 6.143038 14.999413 6.143038 C 11.961675 6.143038 9.499058 8.60561 9.499058 11.643349 C 9.499058 14.681076 11.961675 17.143625 14.999413 17.143625 Z"/>
    </g>
</svg>
