<svg fill="none" height="24" viewBox="0 0 24 24" width="24" xmlns="http://www.w3.org/2000/svg"><g fill="#292d32"><path d="m10.7509 2.45007c.7-.59 1.83-.59 2.51 0l1.58 1.35c.3.25.87.46 1.27.46h1.7c1.06 0 1.93.87 1.93 1.93v1.7c0 .4.21.96.46 1.26l1.35 1.58003c.59.7.59 1.83 0 2.51l-1.35 1.58c-.25.3-.46.86-.46 1.26v1.7c0 1.06-.87 1.93-1.93 1.93h-1.7c-.4 0-.96.21-1.26.46l-1.58 1.35c-.7.59-1.83.59-2.51 0l-1.58004-1.35c-.3-.25-.87-.46-1.26-.46h-1.75c-1.06 0-1.93-.87-1.93-1.93v-1.71c0-.39-.2-.96-.45-1.25l-1.35-1.59c-.58-.69-.58-1.81 0-2.5l1.35-1.59003c.25-.3.45-.86.45-1.25v-1.69c0-1.06.87-1.93 1.93-1.93h1.73c.4 0 .96-.21 1.26-.46z" opacity=".4"/><path d="m12 16.8701c-.55 0-1-.45-1-1s.44-1 1-1c.55 0 1 .45 1 1s-.44 1-1 1z"/><path d="m12 13.7199c-.41 0-.75-.34-.75-.75v-4.84002c0-.41.34-.75.75-.75s.75.34.75.75v4.83002c0 .42-.33.76-.75.76z"/></g></svg>