<svg fill="none" height="24" viewBox="0 0 24 24" width="24" xmlns="http://www.w3.org/2000/svg"><g fill="#292d32"><path d="m21.6509 10.03c-.39-.56003-1.08-.88003-1.87-.88003h-4.1c-.27 0-.52-.10999-.69-.30999-.18-.2-.25-.48001-.21-.77001l.51-3.28c.22-.98-.43-2.07999-1.41-2.40999-.91-.34-1.98.12-2.41.77l-4.22004 6.27-.12.2v8.84002l.15.15 3.17004 2.45c.42.42 1.37.65 2.04.65h3.9c1.34 0 2.69-1.01 2.99-2.24l2.46-7.49c.26-.71.19-1.4-.19-1.95z" opacity=".4"/><path d="m5.21 6.37988h-1.03c-1.55 0-2.18.6-2.18 2.08v10.06002c0 1.48.63 2.08 2.18 2.08h1.03c1.55 0 2.18-.6 2.18-2.08v-10.06002c0-1.48-.63-2.08-2.18-2.08z"/></g></svg>