<svg width="29" height="28" viewBox="0 0 29 28" fill="none" xmlns="http://www.w3.org/2000/svg">
<path opacity="0.4" d="M14.5 25.6667C20.9435 25.6667 26.1667 20.4435 26.1667 14C26.1667 7.55651 20.9435 2.33334 14.5 2.33334C8.0565 2.33334 2.83333 7.55651 2.83333 14C2.83333 20.4435 8.0565 25.6667 14.5 25.6667Z" fill="#878C90"/>
<path d="M18.6289 9.87234C18.4352 9.67661 18.1936 9.53499 17.9282 9.46158C17.6628 9.38818 17.3828 9.38554 17.1161 9.45392L12.61 10.5804C12.2397 10.6722 11.9013 10.8632 11.6315 11.1331C11.3617 11.4029 11.1706 11.7412 11.0789 12.1116L9.95239 16.6222C9.81445 17.1694 9.97078 17.735 10.3708 18.135C10.6743 18.4339 11.0743 18.5994 11.4881 18.5994C11.6169 18.5994 11.7502 18.5856 11.879 18.5488L16.3896 17.4223C16.76 17.3306 17.0983 17.1395 17.3681 16.8697C17.638 16.5999 17.829 16.2615 17.9208 15.8912L19.0473 11.3805C19.1852 10.8333 19.0289 10.2678 18.6289 9.87234Z" fill="#878C90"/>
</svg>
