<svg width="25" height="25" viewBox="0 0 25 25" fill="none" xmlns="http://www.w3.org/2000/svg">
<path opacity="0.4" d="M17.9172 0.839615H7.85624C3.48606 0.839615 0.88076 3.44491 0.88076 7.81509V17.8641C0.88076 22.2463 3.48606 24.8516 7.85624 24.8516H17.9052C22.2754 24.8516 24.8807 22.2463 24.8807 17.8761V7.81509C24.8927 3.44491 22.2874 0.839615 17.9172 0.839615Z" fill="#292D32"/>
<path d="M6.75275 17.3478C6.41658 17.3478 6.10443 17.1678 5.94835 16.8556C5.72024 16.4114 5.90033 15.8711 6.35655 15.643C7.40107 15.1267 8.28952 14.3343 8.92583 13.3739C9.14194 13.0497 9.14194 12.6415 8.92583 12.3173C8.27751 11.3569 7.38907 10.5645 6.35655 10.0482C5.90033 9.83213 5.72024 9.29186 5.94835 8.83563C6.16446 8.39141 6.70473 8.21132 7.14895 8.43943C8.46961 9.09976 9.59817 10.0963 10.4146 11.3208C11.0269 12.2453 11.0269 13.4459 10.4146 14.3704C9.59817 15.595 8.46961 16.5915 7.14895 17.2518C7.02889 17.3118 6.88482 17.3478 6.75275 17.3478Z" fill="#292D32"/>
<path d="M18.8897 17.3478H14.0873C13.5951 17.3478 13.1869 16.9396 13.1869 16.4474C13.1869 15.9551 13.5951 15.5469 14.0873 15.5469H18.8897C19.382 15.5469 19.7902 15.9551 19.7902 16.4474C19.7902 16.9396 19.382 17.3478 18.8897 17.3478Z" fill="#292D32"/>
</svg>
