<?xml version="1.0" encoding="UTF-8"?>
<!-- Generated by Pixelmator Pro 3.3.4 -->
<svg width="21" height="22" viewBox="0 0 21 22" xmlns="http://www.w3.org/2000/svg">
    <path id="Path" fill="#919196" stroke="none" opacity="0.597311" d="M 17.197903 9.947611 L 11.552974 9.947611 L 11.552974 4.302673 C 11.552974 3.590548 10.96241 3 10.250292 3 C 9.538158 3 8.947611 3.590548 8.947611 4.302673 L 8.947611 9.947611 L 3.302674 9.947611 C 2.590547 9.947611 2 10.53819 2 11.250308 C 2 11.962426 2.590547 12.55299 3.302674 12.55299 L 8.947611 12.55299 L 8.947611 18.197918 C 8.947611 18.910036 9.538158 19.500601 10.250292 19.500601 C 10.96241 19.500601 11.552974 18.910036 11.552974 18.197918 L 11.552974 12.55299 L 17.197903 12.55299 C 17.910021 12.55299 18.500584 11.962426 18.500584 11.250308 C 18.500584 10.53819 17.910021 9.947611 17.197903 9.947611 Z"/>
</svg>
