<svg fill="none" height="24" viewBox="0 0 24 24" width="24" xmlns="http://www.w3.org/2000/svg"><g fill="#292d32"><path d="m16.19 2h-8.38c-3.64 0-5.81 2.17-5.81 5.81v8.37c0 3.65 2.17 5.82 5.81 5.82h8.37c3.64 0 5.81-2.17 5.81-5.81v-8.38c.01-3.64-2.16-5.81-5.8-5.81z" opacity=".4"/><path d="m18.8192 10.5799c.4 0 .73-.3299.73-.72995 0-.4-.33-.73-.73-.73h-3.61l.39-3.5c.04-.4-.24-.76-.65-.81-.4-.04-.76.24-.81.65l-.41 3.66h-2.83l.39-3.5c.04-.4-.24-.76-.65-.81-.4-.04-.75998.24-.80998.65l-.4 3.66h-3.53c-.4 0-.73.33-.73.73 0 .40005.33.72995.73.72995h3.37l-.32 2.8501h-3.77c-.4 0-.73.33-.73.73 0 .3999.33.73.73.73h3.61l-.39 3.4999c-.04.4.24.7601.65.8101h.08c.37 0 .68-.2801.73-.6501l.40998-3.6599h2.84l-.39 3.4999c-.04.4.24.7601.65.8101h.08c.37 0 .68-.2801.73-.6501l.41-3.6599h3.53c.4 0 .73-.3301.73-.73 0-.4-.33-.73-.73-.73h-3.37l.32-2.8501zm-5.56 2.8401h-2.84l.32-2.8501h2.84z"/></g></svg>