<svg fill="none" height="24" viewBox="0 0 24 24" width="24" xmlns="http://www.w3.org/2000/svg"><g fill="#292d32"><path d="m9 2c-2.62 0-4.75 2.13-4.75 4.75 0 2.57 2.01 4.65 4.63 4.74.08-.01.16-.01.22 0h.05.02c2.56-.09 4.57-2.17 4.58-4.74 0-2.62-2.13-4.75-4.75-4.75z" opacity=".4"/><path d="m14.0809 14.1499c-2.79-1.86-7.33996-1.86-10.14996 0-1.27.85-1.97 2-1.97 3.23s.7 2.37 1.96 3.21c1.4.94 3.24 1.41 5.08 1.41 1.83996 0 3.67996-.47 5.07996-1.41 1.26-.85 1.96-1.99 1.96-3.23-.01-1.23-.7-2.37-1.96-3.21z"/><path d="m19.9894 7.3401c.16 1.94-1.22 3.64-3.13 3.87-.01 0-.01 0-.02 0h-.03c-.06 0-.12 0-.17.02-.97.05-1.86-.26-2.53-.83 1.03-.92 1.62-2.3 1.5-3.8-.07-.81-.35-1.55-.77-2.18.38-.19.82-.31 1.27-.35 1.96-.17 3.71 1.29 3.88 3.27z" opacity=".4"/><path d="m21.9902 16.5899c-.08.97-.7 1.81-1.74 2.38-1 .55-2.26.81-3.51.78.72-.65 1.14-1.46 1.22-2.32.1-1.24-.49-2.43-1.67-3.38-.67-.53-1.45-.95-2.3-1.26 2.21-.64 4.99-.21 6.7 1.17.92.74 1.39 1.67 1.3 2.63z"/></g></svg>