<?xml version="1.0" encoding="UTF-8"?>
<!-- Generated by Pixelmator Pro 3.3.4 -->
<svg width="24" height="24" viewBox="0 0 24 24" xmlns="http://www.w3.org/2000/svg">
    <path id="Path" fill="#292d32" stroke="none" opacity="0.4" d="M 0 13.164 L 0 5.987999 C 0 2.676001 2.688 0 6 0 L 18 0 C 21.312 0 24 2.676001 24 5.987999 L 24 14.364 C 24 17.664 21.312 20.34 18 20.34 L 16.200001 20.34 C 15.828 20.34 15.468 20.52 15.24 20.82 L 13.44 23.208 C 12.648 24.264 11.352 24.264 10.56 23.208 L 8.76 20.82 C 8.568 20.556 8.136 20.34 7.8 20.34 L 6 20.34 C 2.688 20.34 0 17.664 0 14.364 L 0 13.164 Z"/>
    <g id="Group">
        <path id="path1" fill="#292d32" stroke="none" visibility="hidden" d="M 12 12 C 11.328 12 10.8 11.46 10.8 10.8 C 10.8 10.14 11.34 9.6 12 9.6 C 12.66 9.6 13.2 10.14 13.2 10.8 C 13.2 11.46 12.672 12 12 12 Z"/>
        <path id="path2" fill="#292d32" stroke="none" visibility="hidden" d="M 16.799999 12 C 16.128 12 15.6 11.46 15.6 10.8 C 15.6 10.14 16.139999 9.6 16.799999 9.6 C 17.459999 9.6 18 10.14 18 10.8 C 18 11.46 17.472 12 16.799999 12 Z"/>
        <path id="path3" fill="#292d32" stroke="none" visibility="hidden" d="M 7.2 12 C 6.528 12 6 11.46 6 10.8 C 6 10.14 6.54 9.6 7.2 9.6 C 7.86 9.6 8.4 10.14 8.4 10.8 C 8.4 11.46 7.872 12 7.2 12 Z"/>
    </g>
    <text id="text1" xml:space="preserve" x="3" y="17" font-family="SF Compact Text" font-size="17" fill="#292d32" letter-spacing="0.34">@</text>
</svg>
