<svg fill="none" height="24" viewBox="0 0 24 24" width="24" xmlns="http://www.w3.org/2000/svg"><g fill="#292d32"><path d="m14.5292 3.47023-2-2c-.01-.01-.02-.01-.02-.02-.06-.06-.14-.11-.22-.15-.01 0-.01 0-.02-.01-.08-.03-.16-.04-.24-.05-.03 0-.05 0-.08 0-.06 0-.12.02-.18.04-.03.01-.05.02-.07.03-.08.04-.16.08-.22.15l-1.99998 2c-.29.29-.29.77 0 1.06s.76998.29 1.05998 0l.72-.72v5.2c0 .41.34.75.75.75s.74-.34.74-.75v-5.19l.72.72c.15.15.34.22.53.22s.38-.07.53-.22c.29-.29.29-.77 0-1.06z"/><path d="m16.19 6h-8.38c-3.64 0-5.81 2.17-5.81 5.81v4.37c0 3.65 2.17 5.82 5.81 5.82h8.37c3.64 0 5.81-2.17 5.81-5.81v-4.37c.01-3.65-2.16-5.82-5.8-5.82z" opacity=".4"/><path d="m21.3 12.23h-3.48c-.98 0-1.85.54-2.29 1.42l-.84 1.66c-.2.4-.6.65-1.04.65h-3.28c-.31 0-.75-.07-1.04-.65l-.84-1.65c-.44-.87-1.32-1.42-2.29-1.42h-3.5c-.39 0-.7.31-.7.7v3.26c0 3.63 2.18 5.8 5.82 5.8h8.38c3.43 0 5.54-1.88 5.8-5.22v-3.85c0-.38-.31-.7-.7-.7z"/></g></svg>