<svg fill="none" height="24" viewBox="0 0 24 24" width="24" xmlns="http://www.w3.org/2000/svg"><g stroke="#292d32" stroke-linecap="round" stroke-linejoin="round" stroke-width="1.5"><path d="m11 2h-2c-5 0-7 2-7 7v6c0 5 2 7 7 7h6c5 0 7-2 7-7v-2" opacity=".4"/><g stroke-miterlimit="10"><path d="m16.0399 3.01976-7.88002 7.88004c-.3.3-.6.89-.66 1.32l-.43 3.01c-.16 1.09.61 1.85 1.7 1.7l3.01002-.43c.42-.06 1.01-.36 1.32-.66l7.88-7.88004c1.36-1.36 2-2.94 0-4.94s-3.58-1.36-4.94 0z"/><path d="m14.9102 4.1499c.67 2.39 2.54 4.26 4.94 4.94" opacity=".4"/></g></g></svg>