<svg fill="none" height="24" viewBox="0 0 24 24" width="24" xmlns="http://www.w3.org/2000/svg"><g fill="#292d32"><path d="m18 13c-.94 0-1.81.33-2.5.88-.92.73-1.5 1.86-1.5 3.12 0 .75.21 1.46.58 2.06.69 1.16 1.96 1.94 3.42 1.94 1.01 0 1.93-.37 2.63-1 .31-.26.58-.58.79-.94.37-.6.58-1.31.58-2.06 0-2.21-1.79-4-4-4zm2.07 3.57-2.13 1.97c-.14.13-.33.2-.51.2-.19 0-.38-.07-.53-.22l-.99-.99c-.29-.29-.29-.77 0-1.06s.77-.29 1.06 0l.48.48 1.6-1.48c.3-.28.78-.26 1.06.04s.26.77-.04 1.06z"/><path d="m21.0901 21.5c0 .28-.22.5-.5.5h-17.17994c-.28 0-.5-.22-.5-.5 0-4.14 4.07999-7.5 9.09004-7.5 1.03 0 2.03.14 2.95.41-.59.7-.95 1.61-.95 2.59 0 .75.2099 1.46.5799 2.06.2.34.46.65.76.91.7.64 1.6301 1.03 2.6601 1.03 1.12 0 2.13-.46 2.85-1.2.16.54.2399 1.11.2399 1.7z" opacity=".4"/><path d="m12 12c2.7614 0 5-2.23858 5-5s-2.2386-5-5-5c-2.76142 0-5 2.23858-5 5s2.23858 5 5 5z"/></g></svg>