<svg fill="none" height="24" viewBox="0 0 24 24" width="24" xmlns="http://www.w3.org/2000/svg"><g fill="#292d32"><path d="m22 8v8.19c0 3.64-2.17 5.81-5.81 5.81h-8.38c-3.64 0-5.81-2.17-5.81-5.81v-8.18z" opacity=".4"/><path d="m9.00094 17.7499c-.11 0-.23-.03-.33-.08-.77-.39-1.43-.97-1.91-1.69-.4-.6-.4-1.37 0-1.97.48-.72 1.14-1.3 1.91-1.68.37-.19.82-.03 1.01.34s.04.82-.34 1.01c-.54.27-1 .68-1.33 1.18-.06.09-.06.21 0 .31.33.5.79.91 1.33 1.18.37.19.52.64.34 1.01-.14.24-.41.39-.68.39z"/><path d="m15.2092 17.7499c-.28 0-.54-.15-.67-.41-.19-.37-.04-.82.34-1.01.54-.27 1-.68 1.33-1.18.06-.09.06-.21 0-.31-.33-.5-.79-.91-1.33-1.18-.37-.19-.52-.64-.34-1.01.19-.37.64-.52 1.01-.34.77.39 1.43.97 1.91 1.69.4.6.4 1.37 0 1.97-.48.72-1.14 1.3-1.91 1.68-.12.07-.23.1-.34.1z"/><path d="m22 7.81v.19l-20 .01v-.2c0-3.64 2.17-5.81 5.81-5.81h8.38c3.64 0 5.81 2.17 5.81 5.81z"/></g></svg>