<svg fill="none" height="24" viewBox="0 0 24 24" width="24" xmlns="http://www.w3.org/2000/svg"><g fill="#292d32"><path d="m12.5002 14.75h-2.5c-.40996 0-.74996-.34-.74996-.75s.34-.75.74996-.75h2.5c2.62 0 4.75-2.13 4.75-4.75s-2.13-4.75-4.75-4.75h-4.99996c-2.62 0-4.75 2.13-4.75 4.75 0 1.1.38999 2.17 1.08999 3.02.26.32.22.79-.1 1.06-.32.26-.78999.22-1.05999-.1-.93-1.12-1.44001-2.53-1.44001-3.98 0-3.45 2.8-6.25 6.25-6.25h4.99997c3.45 0 6.25 2.8 6.25 6.25s-2.79 6.25-6.24 6.25z"/><path d="m16.5 21.75h-5c-3.45 0-6.25-2.8-6.25-6.25s2.8-6.25 6.25-6.25h2.5c.41 0 .75.34.75.75s-.34.75-.75.75h-2.5c-2.62 0-4.75 2.13-4.75 4.75s2.13 4.75 4.75 4.75h5c2.62 0 4.75-2.13 4.75-4.75 0-1.1-.39-2.17-1.09-3.02-.26-.32-.22-.79.1-1.06s.79-.22 1.06.1c.93 1.12 1.44 2.53 1.44 3.98-.01 3.45-2.81 6.25-6.26 6.25z" opacity=".4"/></g></svg>