<svg width="26" height="24" viewBox="0 0 26 24" fill="none" xmlns="http://www.w3.org/2000/svg">
<path opacity="0.4" d="M0.720947 13.3091V11.1393C0.720947 9.8572 1.76885 8.79703 3.06331 8.79703C5.29473 8.79703 6.20702 7.21901 5.08515 5.28348C4.44408 4.17393 4.82625 2.73153 5.94812 2.09046L8.08091 0.869964C9.05484 0.290536 10.3123 0.635727 10.8917 1.60966L11.0274 1.8439C12.1369 3.77943 13.9615 3.77943 15.0834 1.8439L15.219 1.60966C15.7984 0.635727 17.0559 0.290536 18.0298 0.869964L20.1626 2.09046C21.2845 2.73153 21.6666 4.17393 21.0256 5.28348C19.9037 7.21901 20.816 8.79703 23.0474 8.79703C24.3295 8.79703 25.3898 9.84488 25.3898 11.1393V13.3091C25.3898 14.5913 24.3419 15.6515 23.0474 15.6515C20.816 15.6515 19.9037 17.2295 21.0256 19.165C21.6666 20.2869 21.2845 21.717 20.1626 22.358L18.0298 23.5785C17.0559 24.158 15.7984 23.8128 15.219 22.8388L15.0834 22.6046C13.9738 20.6691 12.1492 20.6691 11.0274 22.6046L10.8917 22.8388C10.3123 23.8128 9.05484 24.158 8.08091 23.5785L5.94812 22.358C4.82625 21.717 4.44408 20.2746 5.08515 19.165C6.20702 17.2295 5.29473 15.6515 3.06331 15.6515C1.76885 15.6515 0.720947 14.5913 0.720947 13.3091Z" fill="#292D32"/>
<path d="M13.0492 16.231C15.262 16.231 17.0559 14.4371 17.0559 12.2243C17.0559 10.0115 15.262 8.21765 13.0492 8.21765C10.8364 8.21765 9.04254 10.0115 9.04254 12.2243C9.04254 14.4371 10.8364 16.231 13.0492 16.231Z" fill="#292D32"/>
</svg>
