<svg fill="none" height="24" viewBox="0 0 24 24" width="24" xmlns="http://www.w3.org/2000/svg"><g fill="#292d32"><path d="m21.23 7.61998h-5.54c-.38 0-.69-.31-.69-.7 0-.38.31-.69.69-.69h5.54c.38 0 .69.31.69.69 0 .39-.31.7-.69.7z" opacity=".4"/><path d="m6.46008 7.62023h-3.69c-.38 0-.69-.31-.69-.69s.31-.69.69-.69h3.69c.38 0 .69.31.69.69s-.31.69-.69.69z" opacity=".4"/><path d="m10.1505 10.84c2.1649 0 3.92-1.75504 3.92-3.92s-1.7551-3.92-3.92-3.92c-2.16499 0-3.92003 1.75504-3.92003 3.92s1.75504 3.92 3.92003 3.92z"/><path d="m21.2296 17.7701h-3.69c-.38 0-.69-.31-.69-.69s.31-.69.69-.69h3.69c.38 0 .69.31.69.69s-.31.69-.69.69z" opacity=".4"/><path d="m8.31008 17.7701h-5.54c-.38 0-.69-.31-.69-.69s.31-.69.69-.69h5.54c.38 0 .69.31.69.69s-.31.69-.69.69z" opacity=".4"/><path d="m13.8497 21.0002c2.1649 0 3.92-1.7551 3.92-3.92 0-2.165-1.7551-3.92-3.92-3.92-2.165 0-3.92001 1.755-3.92001 3.92 0 2.1649 1.75501 3.92 3.92001 3.92z"/></g></svg>