<svg width="29" height="28" viewBox="0 0 29 28" fill="none" xmlns="http://www.w3.org/2000/svg">
<path opacity="0.4" d="M21.4767 12.5883V17.255C21.4767 17.5583 21.465 17.85 21.43 18.13C21.1617 21.28 19.3067 22.8433 15.8883 22.8433H15.4217C15.13 22.8433 14.85 22.9833 14.675 23.2167L13.275 25.0833C12.6567 25.9117 11.6533 25.9117 11.035 25.0833L9.635 23.2167C9.54161 23.1079 9.42748 23.0189 9.29927 22.9548C9.17107 22.8907 9.03136 22.8528 8.88833 22.8433H8.42167C4.7 22.8433 2.83333 21.9217 2.83333 17.255V12.5883C2.83333 9.17 4.40833 7.315 7.54667 7.04667C7.82667 7.01167 8.11833 7 8.42167 7H15.8883C19.61 7 21.4767 8.86667 21.4767 12.5883Z" fill="#878C90"/>
<path d="M12.155 16.3333C11.5017 16.3333 10.9883 15.8083 10.9883 15.1667C10.9883 14.525 11.5133 14 12.155 14C12.7967 14 13.3217 14.525 13.3217 15.1667C13.3217 15.8083 12.8083 16.3333 12.155 16.3333Z" fill="#878C90"/>
<path d="M16.2383 16.3333C15.585 16.3333 15.0717 15.8083 15.0717 15.1667C15.0717 14.525 15.5967 14 16.2383 14C16.88 14 17.405 14.525 17.405 15.1667C17.405 15.8083 16.88 16.3333 16.2383 16.3333Z" fill="#878C90"/>
<path d="M8.08333 16.3333C7.43 16.3333 6.91667 15.8083 6.91667 15.1667C6.91667 14.525 7.44167 14 8.08333 14C8.725 14 9.25 14.525 9.25 15.1667C9.25 15.8083 8.725 16.3333 8.08333 16.3333Z" fill="#878C90"/>
<path d="M26.1433 7.92168V12.5883C26.1433 16.0183 24.5683 17.8617 21.43 18.13C21.465 17.85 21.4767 17.5583 21.4767 17.255V12.5883C21.4767 8.86668 19.61 7.00001 15.8883 7.00001H8.42167C8.11833 7.00001 7.82667 7.01168 7.54667 7.04668C7.815 3.90834 9.67 2.33334 13.0883 2.33334H20.555C24.2767 2.33334 26.1433 4.20001 26.1433 7.92168Z" fill="#878C90"/>
</svg>
