<?xml version="1.0" encoding="UTF-8"?>
<!-- Generated by Pixelmator Pro 3.3.4 -->
<svg width="24" height="24" viewBox="0 0 24 24" xmlns="http://www.w3.org/2000/svg">
    <g id="Group">
        <g id="g1">
            <path id="Path" fill="#292d32" stroke="none" d="M 16.04496 13.362114 C 18.185148 13.362114 19.920145 11.627131 19.920145 9.48693 C 19.920145 7.346727 18.185148 5.611746 16.04496 5.611746 C 13.904758 5.611746 12.169777 7.346727 12.169777 9.48693 C 12.169777 11.627131 13.904758 13.362114 16.04496 13.362114 Z"/>
            <path id="path1" fill="#292d32" stroke="none" opacity="0.4" d="M 16.045116 15.299706 C 12.162166 15.299706 9 17.90383 9 21.112482 C 9 21.329493 9.170508 21.5 9.387518 21.5 L 22.702682 21.5 C 22.919691 21.5 23.0902 21.329493 23.0902 21.112482 C 23.0902 17.90383 19.928051 15.299706 16.045116 15.299706 Z"/>
        </g>
        <g id="Group-copy">
            <path id="path2" fill="#292d32" stroke="none" d="M 5.542585 9.097561 C 7.226366 9.097561 8.591366 7.732573 8.591366 6.04878 C 8.591366 4.364988 7.226366 3 5.542585 3 C 3.858793 3 2.493805 4.364988 2.493805 6.04878 C 2.493805 7.732573 3.858793 9.097561 5.542585 9.097561 Z"/>
            <path id="path3" fill="#292d32" stroke="none" opacity="0.4" d="M 5.542707 10.621951 C 2.487817 10.621951 -0 12.670732 -0 15.195122 C -0 15.365854 0.134146 15.5 0.304878 15.5 L 10.780513 15.5 C 10.951243 15.5 11.08539 15.365854 11.08539 15.195122 C 11.08539 12.670732 8.597586 10.621951 5.542707 10.621951 Z"/>
        </g>
        <path id="path4" fill="#292d32" stroke="none" d="M 22.344568 14.824776 C 21.311193 13.7914 20.495974 14.124377 19.795576 14.824776 L 15.730848 18.889387 C 15.570102 19.050133 15.420951 19.348663 15.386504 19.566822 L 15.168348 21.116886 C 15.087975 21.679501 15.47836 22.069887 16.040977 21.989515 L 17.590925 21.771357 C 17.809082 21.73691 18.119209 21.587646 18.268476 21.426899 L 22.332972 17.362288 C 23.044851 16.67337 23.377943 15.85815 22.344568 14.824776 Z"/>
    </g>
</svg>
