<svg fill="none" height="24" viewBox="0 0 24 24" width="24" xmlns="http://www.w3.org/2000/svg"><g fill="#292d32"><path d="m21.7605 15.92-6.4-11.52c-.86-1.55-2.05-2.4-3.36-2.4s-2.50003.85-3.36003 2.4l-6.4 11.52c-.81 1.47-.9 2.88-.25 3.99s1.93 1.72 3.61 1.72h12.80003c1.68 0 2.96-.61 3.61-1.72s.56-2.53-.25-3.99z" opacity=".4"/><path d="m12 14.75c-.41 0-.75-.34-.75-.75v-5c0-.41.34-.75.75-.75s.75.34.75.75v5c0 .41-.34.75-.75.75z"/><path d="m12 18.0001c-.06 0-.13-.01-.2-.02-.06-.01-.12-.03-.18-.06-.06-.02-.12-.05-.18-.09-.05-.04-.1-.08-.15-.12-.18-.19-.29-.45-.29-.71s.11-.52.29-.71c.05-.04.1-.08.15-.12.06-.04.12-.07.18-.09.06-.03.12-.05.18-.06.13-.03.27-.03.39 0 .07.01.13.03.19.06.06.02.12.05.18.09l.15.12c.18.19.29.45.29.71s-.11.52-.29.71c-.05.04-.1.08-.15.12-.06.04-.12.07-.18.09-.06.03-.12.05-.19.06-.06.01-.13.02-.19.02z"/></g></svg>