<svg fill="none" height="24" viewBox="0 0 24 24" width="24" xmlns="http://www.w3.org/2000/svg"><g fill="#292d32"><path d="m21 22h-18c-.41 0-.75-.34-.75-.75s.34-.75.75-.75h18c.41 0 .75.34.75.75s-.34.75-.75.75z" opacity=".4"/><path d="m19.0206 3.48016c-1.94-1.94-3.84-1.99-5.83 0l-1.21 1.21c-.1.1-.14.26-.1.4.76 2.65 2.88 4.77 5.53 5.53004.04.01.08.02.12.02.11 0 .21-.04.29-.12l1.2-1.21004c.99-.98 1.47-1.93 1.47-2.89.01-.99-.47-1.95-1.47-2.94z" opacity=".4"/><path d="m15.6103 11.5298c-.29-.14-.57-.28-.84-.44-.22-.13-.43-.27-.64-.42-.17-.11-.37-.27-.56-.43-.02-.01-.09-.07-.17-.15-.33-.28-.7-.64-1.03-1.04-.03-.02-.08-.09-.15-.18-.1-.12-.27-.32-.42-.55-.12-.15-.26-.37-.39-.59-.16-.27-.3-.54-.44-.82-.14-.3-.25-.59-.35-.86l-6.27998 6.28c-.13.13-.25.38-.28.55l-.54 3.83c-.1.68.09 1.32.51 1.75.36.35.86.54 1.4.54.12 0 .24-.01.36-.03l3.84-.54c.18-.03.42998-.15.54998-.28l6.28-6.28c-.28-.1-.55-.21-.85-.34z"/></g></svg>