<svg width="25" height="26" viewBox="0 0 25 26" fill="none" xmlns="http://www.w3.org/2000/svg">
<path opacity="0.8" d="M13.9861 1.47667L13.9492 1.56273L10.3836 9.83734H6.87953C6.04347 9.83734 5.25658 9.99717 4.51888 10.3168L6.67052 5.17749L6.7197 5.06684L6.79347 4.87012C6.83035 4.78405 6.85494 4.71028 6.89183 4.6488C8.50249 0.923388 10.3222 0.0750266 13.9861 1.47667Z" fill="#292D32"/>
<path d="M20.615 10.0832C20.0617 9.92332 19.4838 9.83725 18.8814 9.83725H10.3854L13.951 1.56265L13.9879 1.47659C14.16 1.53806 14.3445 1.62413 14.5289 1.6856L17.2461 2.82905C18.7584 3.4561 19.8158 4.10774 20.4674 4.89462C20.5781 5.04216 20.6764 5.17741 20.7748 5.33725C20.8855 5.50938 20.9715 5.68151 21.0207 5.86594C21.0699 5.97659 21.1068 6.07495 21.1314 6.18561C21.451 7.23069 21.2543 8.49709 20.615 10.0832Z" fill="#292D32"/>
<path opacity="0.4" d="M24.8808 15.837V18.2345C24.8808 18.4804 24.8685 18.7263 24.8562 18.9599C24.6226 23.2632 22.225 25.4272 17.6758 25.4272H8.08569C7.77831 25.4272 7.49552 25.4026 7.21274 25.3657C3.3029 25.1075 1.21273 23.0173 0.942236 19.1075C0.90535 18.8124 0.88076 18.5296 0.88076 18.2345V15.837C0.88076 13.3657 2.38076 11.2386 4.52011 10.3165C5.25782 9.99684 6.0447 9.83701 6.88077 9.83701H18.8807C19.4832 9.83701 20.0611 9.92307 20.6144 10.0829C23.0734 10.8329 24.8808 13.1198 24.8808 15.837Z" fill="#292D32"/>
<path opacity="0.6" d="M6.67175 5.17712L4.52011 10.3165C2.38076 11.2386 0.88076 13.3657 0.88076 15.837V12.2345C0.88076 8.7427 3.36437 5.82876 6.67175 5.17712Z" fill="#292D32"/>
<path opacity="0.6" d="M24.8794 12.2345V15.837C24.8794 13.1198 23.072 10.8329 20.613 10.0829C21.2524 8.49686 21.4491 7.23046 21.1294 6.18538C21.1048 6.07472 21.0679 5.97636 21.0187 5.86571C23.3179 7.05833 24.8794 9.48047 24.8794 12.2345Z" fill="#292D32"/>
</svg>
