<svg fill="none" height="24" viewBox="0 0 24 24" width="24" xmlns="http://www.w3.org/2000/svg"><g fill="#292d32"><path d="m17.5291 7.77c-.07-.01-.14-.01-.21 0-1.55-.05-2.78-1.32-2.78-2.88 0-1.59 1.29-2.89 2.89-2.89 1.59 0 2.89 1.29 2.89 2.89-.01 1.56-1.24 2.83-2.79 2.88z" opacity=".4"/><path d="m20.7896 14.6999c-1.12.75-2.69 1.03-4.14.84.38-.82.58-1.73.59-2.69 0-1-.22-1.95-.64-2.78 1.48-.19998 3.05.08 4.18.83 1.58 1.04 1.58 2.75.01 3.8z" opacity=".4"/><path d="m6.44039 7.77c.07-.01.14-.01.21 0 1.55-.05 2.78-1.32 2.78-2.88 0-1.59-1.29-2.89-2.89-2.89-1.59 0-2.89 1.29-2.89 2.89.01 1.56 1.24 2.83 2.79 2.88z" opacity=".4"/><path d="m6.54914 12.8501c0 .97.21 1.89.59 2.72-1.41.15-2.88-.15-3.96-.86-1.58-1.05-1.58-2.76 0-3.81 1.07-.72 2.58-1.01 4-.85-.41.84-.63 1.79-.63 2.8z" opacity=".4"/><path d="m12.1208 15.87c-.08-.01-.17-.01-.26 0-1.84-.06-3.31002-1.57-3.31002-3.43 0-1.9 1.53002-3.44 3.44002-3.44 1.9 0 3.44 1.54 3.44 3.44 0 1.86-1.46 3.37-3.31 3.43z"/><path d="m8.87078 17.9399c-1.51 1.01-1.51 2.67 0 3.67 1.72002 1.15 4.54002 1.15 6.26002 0 1.51-1.01 1.51-2.67 0-3.67-1.71-1.15-4.53-1.15-6.26002 0z"/></g></svg>