<svg fill="none" height="24" viewBox="0 0 24 24" width="24" xmlns="http://www.w3.org/2000/svg"><g fill="#292d32"><path d="m15.48 3h-7.96c-3.45 0-5.52 2.06-5.52 5.52v7.95c0 3.47 2.07 5.53 5.52 5.53h7.95c3.46 0 5.52-2.06 5.52-5.52v-7.96c.01-3.46-2.06-5.52-5.51-5.52z" opacity=".4"/><path d="m21.0195 2.97979c-1.79-1.8-3.54-1.84-5.38 0l-1.13 1.12c-.1.1-.13.24-.09.37.7 2.45 2.66 4.41 5.11 5.11.03.01.08.01.11.01.1 0 .2-.04.27-.11l1.11-1.12c.91-.91 1.36-1.78 1.36-2.67 0-.9-.45-1.79-1.36-2.71z"/><path d="m17.8591 10.4198c-.27-.13-.53-.26-.77-.41-.2-.11996-.4-.24996-.59-.38996-.16-.1-.34-.25-.52-.4-.02-.01-.08-.06-.16-.14-.31-.25-.64-.59-.95-.96-.02-.02-.08-.08-.13-.17-.1-.11-.25-.3-.38-.51-.11-.14-.24-.34-.36-.55-.15-.25-.28-.5-.4-.76-.13-.28-.23-.54-.32-.79l-5.37998 5.37996c-.35.35-.69 1.01-.76 1.5l-.43 2.98c-.09.63.08 1.22.47 1.61.33.33.78.5 1.28.5.11 0 .22-.01.33-.02l2.96998-.42c.49-.07 1.15-.4 1.5-.76l5.38-5.38c-.25-.08-.5-.19-.78-.31z"/></g></svg>