<?xml version="1.0" encoding="UTF-8"?>
<!--Generator: Apple Native CoreSVG 175.5-->
<!DOCTYPE svg
PUBLIC "-//W3C//DTD SVG 1.1//EN"
       "http://www.w3.org/Graphics/SVG/1.1/DTD/svg11.dtd">
<svg version="1.1" xmlns="http://www.w3.org/2000/svg" xmlns:xlink="http://www.w3.org/1999/xlink" width="21.709" height="17.4437">
 <g>
  <rect height="17.4437" opacity="0" width="21.709" x="0" y="0"/>
  <path d="M4.94482 0.28413L0.259766 5.06196C0.102051 5.22895 0 5.47016 0 5.67427C0 6.16597 0.333984 6.49995 0.816406 6.49995C1.05762 6.49995 1.24316 6.41645 1.40088 6.25874L3.33057 4.26411L4.82422 2.53852L4.73145 4.68159L4.73145 16.603C4.73145 17.0947 5.07471 17.4379 5.56641 17.4379C6.04883 17.4379 6.39209 17.0947 6.39209 16.603L6.39209 4.68159L6.30859 2.53852L7.79297 4.26411L9.73193 6.25874C9.88965 6.41645 10.0659 6.49995 10.3071 6.49995C10.7896 6.49995 11.1235 6.16597 11.1235 5.67427C11.1235 5.47016 11.0308 5.22895 10.8638 5.06196L6.18799 0.28413C5.84473-0.0776867 5.29736-0.0962414 4.94482 0.28413ZM16.7734 17.1689L21.4492 12.3725C21.6162 12.2148 21.709 11.9736 21.709 11.7602C21.709 11.2685 21.375 10.9438 20.8926 10.9438C20.6514 10.9438 20.4751 11.018 20.3174 11.1757L18.3877 13.1704L16.894 14.9052L16.9775 12.7622L16.9775 0.84077C16.9775 0.358348 16.6343 0.00580935 16.1519 0.00580935C15.6602 0.00580935 15.3169 0.358348 15.3169 0.84077L15.3169 12.7622L15.4097 14.9052L13.916 13.1704L11.9863 11.1757C11.8286 11.018 11.6431 10.9438 11.4111 10.9438C10.9287 10.9438 10.5854 11.2685 10.5854 11.7602C10.5854 11.9736 10.6875 12.2148 10.8545 12.3725L15.5303 17.1689C15.8735 17.5307 16.4116 17.54 16.7734 17.1689Z" fill="#ffffff" fill-opacity="0.85"/>
 </g>
</svg>
