<svg width="24" height="26" viewBox="0 0 24 26" fill="none" xmlns="http://www.w3.org/2000/svg">
<path opacity="0.4" d="M22.7368 10.3453H19.0863C16.0926 10.3453 13.6547 7.90737 13.6547 4.91368V1.26316C13.6547 0.568421 13.0863 0 12.3916 0H7.03579C3.14526 0 0 2.52632 0 7.03579V18.2274C0 22.7368 3.14526 25.2632 7.03579 25.2632H16.9642C20.8547 25.2632 24 22.7368 24 18.2274V11.6084C24 10.9137 23.4316 10.3453 22.7368 10.3453Z" fill="#292D32"/>
<path d="M16.7996 0.265254C16.2817 -0.252641 15.3849 0.101043 15.3849 0.821043V5.22946C15.3849 7.07367 16.9512 8.6021 18.8586 8.6021C20.0586 8.61473 21.7259 8.61473 23.1533 8.61473C23.8733 8.61473 24.2522 7.76841 23.747 7.26315C21.928 5.43157 18.6691 2.13473 16.7996 0.265254Z" fill="#292D32"/>
<path d="M13.8947 14.8421H6.31579C5.7979 14.8421 5.36842 14.4126 5.36842 13.8947C5.36842 13.3768 5.7979 12.9474 6.31579 12.9474H13.8947C14.4126 12.9474 14.8421 13.3768 14.8421 13.8947C14.8421 14.4126 14.4126 14.8421 13.8947 14.8421Z" fill="#292D32"/>
<path d="M11.3684 19.8947H6.31579C5.7979 19.8947 5.36842 19.4653 5.36842 18.9474C5.36842 18.4295 5.7979 18 6.31579 18H11.3684C11.8863 18 12.3158 18.4295 12.3158 18.9474C12.3158 19.4653 11.8863 19.8947 11.3684 19.8947Z" fill="#292D32"/>
</svg>
