<svg width="24" height="27" viewBox="0 0 24 27" fill="none" xmlns="http://www.w3.org/2000/svg">
<path opacity="0.4" d="M19.8212 8.8576C22.129 8.8576 24 6.98668 24 4.6788C24 2.3709 22.129 0.5 19.8212 0.5C17.5133 0.5 15.6424 2.3709 15.6424 4.6788C15.6424 6.98668 17.5133 8.8576 19.8212 8.8576Z" fill="#292D32"/>
<path d="M4.1788 8.8576C6.48668 8.8576 8.3576 6.98668 8.3576 4.6788C8.3576 2.3709 6.48668 0.5 4.1788 0.5C1.87092 0.5 0 2.3709 0 4.6788C0 6.98668 1.87092 8.8576 4.1788 8.8576Z" fill="#292D32"/>
<path d="M19.8212 26.2219C22.129 26.2219 24 24.351 24 22.0431C24 19.7353 22.129 17.8643 19.8212 17.8643C17.5133 17.8643 15.6424 19.7353 15.6424 22.0431C15.6424 24.351 17.5133 26.2219 19.8212 26.2219Z" fill="#292D32"/>
<path opacity="0.4" d="M4.1788 26.2219C6.48668 26.2219 8.3576 24.351 8.3576 22.0431C8.3576 19.7353 6.48668 17.8643 4.1788 17.8643C1.87092 17.8643 0 19.7353 0 22.0431C0 24.351 1.87092 26.2219 4.1788 26.2219Z" fill="#292D32"/>
</svg>
