<?xml version="1.0" encoding="UTF-8"?>
<!-- Generated by Pixelmator Pro 3.3.4 -->
<svg width="24" height="24" viewBox="0 0 24 24" xmlns="http://www.w3.org/2000/svg">
    <g id="Group">
        <path id="Path" fill="#61656a" stroke="none" opacity="0.4" d="M 17 2 C 14.38 2 12.25 4.130001 12.25 6.75 C 12.25 9.32 14.26 11.4 16.880001 11.49 C 16.959999 11.48 17.040001 11.48 17.1 11.49 L 17.17 11.49 C 18.399399 11.449 19.5646 10.9315 20.4193 10.0469 C 21.274 9.16234 21.7512 7.98004 21.75 6.75 C 21.75 4.130001 19.619999 2 17 2 Z"/>
        <path id="path1" fill="#61656a" stroke="none" d="M 22.08 14.1499 C 19.290001 12.2899 14.74 12.2899 11.93 14.1499 C 10.66 14.9999 9.96 16.1499 9.96 17.3799 C 9.96 18.6099 10.66 19.749901 11.92 20.589899 C 13.32 21.5299 15.16 21.999901 17 21.999901 C 18.84 21.999901 20.68 21.5299 22.08 20.589899 C 23.34 19.739901 24.040001 18.599899 24.040001 17.3599 C 24.030001 16.1299 23.34 14.9899 22.08 14.1499 Z"/>
    </g>
    <g id="Group-copy">
        <path id="path2" fill="#61656a" stroke="none" opacity="0.4" d="M 5.48 3.738609 C 3.797841 3.738609 2.430284 5.106167 2.430284 6.788324 C 2.430284 8.438381 3.720795 9.773835 5.402954 9.831619 C 5.454318 9.825199 5.505682 9.825199 5.544205 9.831619 L 5.589148 9.831619 C 6.378478 9.805296 7.126589 9.473038 7.675345 8.905084 C 8.224102 8.337156 8.530486 7.578066 8.529716 6.788324 C 8.529716 5.106167 7.162158 3.738609 5.48 3.738609 Z"/>
        <path id="path3" fill="#61656a" stroke="none" d="M 8.74159 11.539396 C 6.950284 10.345192 4.028977 10.345192 2.224829 11.539396 C 1.409432 12.085135 0.96 12.823487 0.96 13.613203 C 0.96 14.402919 1.409432 15.134851 2.218409 15.674169 C 3.117272 16.277691 4.298636 16.579453 5.48 16.579453 C 6.661364 16.579453 7.842727 16.277691 8.74159 15.674169 C 9.550568 15.12843 10 14.396498 10 13.600362 C 9.99358 12.810646 9.550568 12.078714 8.74159 11.539396 Z"/>
    </g>
</svg>
