<svg width="24" height="25" viewBox="0 0 24 25" fill="none" xmlns="http://www.w3.org/2000/svg">
<path d="M22.8577 15.2429V17.8601C22.8577 22.0201 20.3777 24.5001 16.2177 24.5001H6.64063C3.72634 24.5001 1.62348 23.2772 0.640625 21.1058L0.766339 21.0144L6.3892 17.243C7.30348 16.6258 8.59491 16.6944 9.40628 17.403L9.79486 17.723C10.6863 18.4887 12.1263 18.4887 13.0177 17.723L17.772 13.643C18.6634 12.8772 20.1034 12.8772 20.9949 13.643L22.8577 15.2429Z" fill="#292D32"/>
<path opacity="0.4" d="M21.68 8.5H18.32C16.8686 8.5 16 7.63142 16 6.18V2.82C16 2.36285 16.0914 1.97428 16.2514 1.64285C16.24 1.64285 16.2286 1.64285 16.2171 1.64285H6.64C2.48 1.64285 0 4.12285 0 8.28285V17.86C0 19.1057 0.217143 20.1914 0.64 21.1057L0.765714 21.0143L6.38857 17.2429C7.30286 16.6257 8.59429 16.6943 9.40571 17.4029L9.79429 17.7229C10.6857 18.4886 12.1257 18.4886 13.0171 17.7229L17.7714 13.6429C18.6629 12.8771 20.1029 12.8771 20.9943 13.6429L22.8571 15.2429V8.28285C22.8571 8.27142 22.8571 8.26 22.8571 8.24857C22.5257 8.40857 22.1371 8.5 21.68 8.5Z" fill="#292D32"/>
<path d="M7.99899 11.2201C9.50123 11.2201 10.7189 10.0023 10.7189 8.50012C10.7189 6.9979 9.50123 5.78012 7.99899 5.78012C6.49677 5.78012 5.27899 6.9979 5.27899 8.50012C5.27899 10.0023 6.49677 11.2201 7.99899 11.2201Z" fill="#292D32"/>
<path d="M21.68 0.5H18.32C16.8686 0.5 16 1.36857 16 2.82V6.18C16 7.63143 16.8686 8.5 18.32 8.5H21.68C23.1314 8.5 24 7.63143 24 6.18V2.82C24 1.36857 23.1314 0.5 21.68 0.5ZM22.7543 4.99143C22.64 5.10571 22.4686 5.18571 22.2857 5.19714H20.6743L20.6857 6.78571C20.6743 6.98 20.6057 7.14 20.4686 7.27714C20.3543 7.39143 20.1829 7.47143 20 7.47143C19.6229 7.47143 19.3143 7.16286 19.3143 6.78571V5.18571L17.7143 5.19714C17.3371 5.19714 17.0286 4.87714 17.0286 4.5C17.0286 4.12286 17.3371 3.81429 17.7143 3.81429L19.3143 3.82571V2.22571C19.3143 1.84857 19.6229 1.52857 20 1.52857C20.3771 1.52857 20.6857 1.84857 20.6857 2.22571L20.6743 3.81429H22.2857C22.6629 3.81429 22.9714 4.12286 22.9714 4.5C22.96 4.69429 22.88 4.85429 22.7543 4.99143Z" fill="#292D32"/>
</svg>
