<svg fill="none" height="24" viewBox="0 0 24 24" width="24" xmlns="http://www.w3.org/2000/svg"><g fill="#292d32"><path d="m16.1898 2h-8.37002c-3.64 0-5.81001 2.17-5.81001 5.81v8.37c0 3.64 2.17001 5.81 5.81001 5.81h8.37002c3.64 0 5.81-2.17 5.81-5.81v-8.37c0-3.64-2.17-5.81-5.81-5.81z" opacity=".4"/><path d="m8.1796 16.7701c-.02 0-.04999 0-.06999 0-.97-.09-1.88-.54-2.56-1.26-1.6-1.68-1.6-4.41 0-6.09l2.19-2.30001c.78-.82 1.83-1.28 2.94999-1.28 1.12 0 2.17.45 2.95 1.28 1.6 1.68 1.6 4.41001 0 6.09001l-1.09 1.15c-.29.3-.76.31-1.06.03-.3-.29-.31-.76-.03-1.06l1.09-1.15c1.06-1.11 1.06-2.92 0-4.02-.99-1.04-2.72999-1.04-3.72999 0l-2.19 2.3c-1.06 1.11-1.06 2.92 0 4.02.43.46 1.01.74 1.62.8.41.04.70999.41.66999.82-.03.38-.36.67-.74.67z"/><path d="m13.3102 18.1601c-1.12 0-2.17-.45-2.95-1.28-1.60004-1.68-1.60004-4.41 0-6.0899l1.09-1.15004c.29-.3.76-.31003 1.06-.03003.3.29.3099.76007.0299 1.06007l-1.0899 1.1499c-1.06 1.11-1.06 2.92 0 4.02.99 1.04 2.7299 1.05 3.7299 0l2.1901-2.2999c1.06-1.11 1.06-2.9201 0-4.02007-.43-.46-1.01-.73999-1.62-.79999-.41-.04-.71-.41-.67-.82s.3999-.71999.8199-.66999c.97.1 1.8801.53998 2.5601 1.25998 1.6 1.67997 1.6 4.40997 0 6.08997l-2.19 2.3c-.79.83-1.84 1.28-2.96 1.28z"/></g></svg>