<svg fill="none" height="24" viewBox="0 0 24 24" width="24" xmlns="http://www.w3.org/2000/svg"><g fill="#292d32"><path d="m17.0192 2.7202-3.48 1.74c-.97.48-2.1.48-3.07 0l-3.48996-1.75c-2.98-1.49-6.129999 1.73-4.57 4.68l.82 1.54c.11.21.29.38.51.48l12.64996 5.69c.52.23 1.13.02 1.39-.48l3.81-7.24c1.55-2.94-1.59-6.16-4.57-4.66z"/><path d="m15.6004 16.3102-8.27995-3.73c-.93-.42-1.87.58-1.39 1.48l3.04 5.77c1.28995 2.45 4.78995 2.45 6.07995 0l1.07-2.04c.28-.55.04-1.22-.52-1.48z" opacity=".4"/></g></svg>