<svg width="24" height="24" viewBox="0 0 24 24" fill="none" xmlns="http://www.w3.org/2000/svg">
<path opacity="0.4" d="M16.8 8.49939H7.2C4 8.49939 2 10.4994 2 13.6994V16.2894C2 19.4994 4 21.4994 7.2 21.4994H16.79C19.99 21.4994 21.99 19.4994 21.99 16.2994V13.6994C22 10.4994 20 8.49939 16.8 8.49939Z" fill="#878C90"/>
<path d="M15.88 6.06904L12.53 2.71904C12.3889 2.57956 12.1985 2.50134 12 2.50134C11.8016 2.50134 11.6112 2.57956 11.47 2.71904L8.12003 6.06904C7.83003 6.35904 7.83003 6.83904 8.12003 7.12904C8.41003 7.41904 8.89003 7.41904 9.18003 7.12904L11.25 5.05904V15.749C11.25 16.159 11.59 16.499 12 16.499C12.41 16.499 12.75 16.159 12.75 15.749V5.05904L14.82 7.12904C14.97 7.27904 15.16 7.34904 15.35 7.34904C15.54 7.34904 15.73 7.27904 15.88 7.12904C16.18 6.83904 16.18 6.36904 15.88 6.06904Z" fill="#878C90"/>
</svg>
